<svg xmlns="http://www.w3.org/2000/svg" viewBox="0 0 1200 630" role="img" aria-labelledby="title desc">
  <title id="title">ClaimDesk Live social preview</title>
  <desc id="desc">A branded preview card for ClaimDesk Live.</desc>
  <rect width="1200" height="630" fill="#edf3f1"/>
  <path d="M0 500h1200v130H0z" fill="#14312d"/>
  <path d="M72 78h1056v430H72z" fill="#ffffff" stroke="#dbe8e4" stroke-width="2"/>
  <rect x="112" y="118" width="112" height="112" rx="24" fill="#14312d"/>
  <path d="M168 136 207 151v31c0 25-16 43-39 56-23-13-39-31-39-56v-31z" fill="#176f6a"/>
  <path d="M168 146 197 157v24c0 19-11 34-29 44-18-10-29-25-29-44v-24z" fill="#edf3f1"/>
  <path d="M154 177h40v13h-40z" fill="#b14c31"/>
  <circle cx="198" cy="184" r="13" fill="#f0bf4c"/>
  <text x="254" y="168" fill="#14312d" font-family="Aptos, Segoe UI, Arial, sans-serif" font-size="34" font-weight="800">Northline Mutual</text>
  <text x="112" y="284" fill="#14312d" font-family="Georgia, Times New Roman, serif" font-size="78" font-weight="700">ClaimDesk Live</text>
  <text x="112" y="354" fill="#5e6b66" font-family="Aptos, Segoe UI, Arial, sans-serif" font-size="32" font-weight="700">Claims stay ready across every route.</text>
  <text x="112" y="431" fill="#7f321f" font-family="Aptos, Segoe UI, Arial, sans-serif" font-size="26" font-weight="800">Live notes - repair network - adjuster workspace</text>
  <text x="112" y="580" fill="#f8fffb" font-family="Aptos, Segoe UI, Arial, sans-serif" font-size="28" font-weight="800">Built for adjusters who move fast</text>
</svg>
